<svg width="88" height="109" viewBox="0 0 88 109" fill="none" xmlns="http://www.w3.org/2000/svg">
<path d="M48.6104 2.48096C48.9206 2.3975 49.2465 2.38919 49.5605 2.45752C49.8747 2.52589 50.1677 2.66833 50.4141 2.87256C55.7975 7.33459 64.7321 15.5193 72.3066 26.2085C79.8898 36.9099 86 49.9656 86 64.2114C86 75.3121 81.5769 85.9597 73.7012 93.811C65.8251 101.663 55.1411 106.075 44 106.075C32.8589 106.075 22.1749 101.663 14.2988 93.811C6.42314 85.9597 2 75.3121 2 64.2114C2.00004 51.2627 6.95457 37.8936 16.9365 24.437L17.918 23.1343C18.0889 22.9109 18.306 22.7257 18.5547 22.5913C18.8034 22.4569 19.0786 22.376 19.3613 22.355C19.6437 22.334 19.9274 22.3732 20.1934 22.4692C20.4596 22.5655 20.7027 22.7167 20.9053 22.9126V22.9136L32.9854 34.5825L35.1982 36.7192L36.2539 33.8296L47.2529 3.71826C47.3622 3.42023 47.5428 3.15247 47.7783 2.93701C48.0143 2.72116 48.3 2.56449 48.6104 2.48096ZM69.0088 62.2944C67.4415 62.0291 65.832 62.3949 64.5342 63.313C63.2361 64.2313 62.356 65.6281 62.0889 67.1958L62.0879 67.1968C60.8453 74.5135 54.6536 80.7829 47.3574 82.1694L47.0088 82.2319C45.5269 82.4799 44.1909 83.2737 43.2666 84.4585C42.3418 85.6441 41.8966 87.1347 42.0215 88.6333C42.1464 90.1318 42.8317 91.5278 43.9395 92.5444C45.0448 93.5588 46.4904 94.1208 47.9902 94.1235V94.1245C47.9918 94.1245 47.9935 94.1235 47.9951 94.1235C47.9964 94.1235 47.9977 94.1235 47.999 94.1235C48.3352 94.1247 48.6707 94.0972 49.002 94.0405V94.0415L49.0156 94.0386C55.2104 92.9343 60.9185 89.9646 65.3701 85.5278C69.4236 81.4879 72.2578 76.4078 73.5703 70.8667H73.6377L73.9219 69.2026C74.1889 67.6349 73.8196 66.0264 72.8975 64.731C71.9754 63.4356 70.5762 62.5598 69.0088 62.2944Z" fill="#FC8D01" stroke="white" stroke-width="4"/>
</svg>
