<svg width="18" height="18" viewBox="0 0 18 18" fill="none" xmlns="http://www.w3.org/2000/svg">
<path d="M16.4831 4.48106C16.0833 4.88085 15.5652 5.14088 15.0057 5.22247C14.4463 5.30406 13.8754 5.20284 13.3781 4.93387L4.93406 13.3779C5.16561 13.8062 5.27352 14.2904 5.24572 14.7764C5.21792 15.2624 5.0555 15.7311 4.77663 16.1302C4.49775 16.5292 4.11341 16.8428 3.66654 17.036C3.21967 17.2292 2.72789 17.2943 2.24616 17.224C1.76443 17.1537 1.31172 16.9509 0.938642 16.6382C0.565561 16.3254 0.286801 15.9151 0.133516 15.453C-0.0197686 14.9909 -0.0415387 14.4953 0.0706391 14.0216C0.182817 13.5479 0.424522 13.1147 0.768743 12.7704C1.16851 12.3706 1.68668 12.1106 2.24614 12.029C2.8056 11.9474 3.37644 12.0486 3.87374 12.3176L12.3178 3.87355C12.0863 3.44532 11.9783 2.96113 12.0061 2.4751C12.0339 1.98906 12.1964 1.52034 12.4752 1.1213C12.7541 0.72226 13.1385 0.408635 13.5853 0.215473C14.0322 0.0223114 14.524 -0.042777 15.0057 0.0274824C15.4874 0.0977417 15.9401 0.30058 16.3132 0.61333C16.6863 0.926079 16.9651 1.33642 17.1183 1.79848C17.2716 2.26055 17.2934 2.75614 17.1812 3.22987C17.069 3.7036 16.8273 4.1368 16.4831 4.48106Z" fill="white"/>
</svg>
