<svg width="362" height="258" viewBox="0 0 362 258" fill="none" xmlns="http://www.w3.org/2000/svg">
<path d="M362 213C362 219.627 356.627 225 350 225H197.653C192.029 225 187.159 228.906 185.939 234.397L182.272 250.897C180.882 257.154 173.068 259.317 168.658 254.667L143.75 228.399V228.399C142.148 226.709 140.21 225 137.881 225H12C5.37258 225 0 219.627 0 213V20C0 13.3726 5.37258 8 12 8H350C356.627 8 362 13.3726 362 20V213Z" fill="#97D9D0"/>
<path d="M362 205C362 211.627 356.627 217 350 217H198.691C193.174 217 188.367 220.762 187.042 226.119L182.956 242.638C181.458 248.692 173.916 250.779 169.518 246.357L144.56 221.265V221.265C142.57 219.264 140.279 217 137.458 217H12C5.37258 217 0 211.627 0 205V12C0 5.37258 5.37258 0 12 0H350C356.627 0 362 5.37258 362 12V205Z" fill="#E5FFFB"/>
</svg>
