<svg width="48" height="49" viewBox="0 0 48 49" fill="none" xmlns="http://www.w3.org/2000/svg">
<path d="M24 5C20.1433 5 16.3731 6.14366 13.1664 8.28634C9.95963 10.429 7.46027 13.4745 5.98436 17.0377C4.50845 20.6008 4.12228 24.5216 4.8747 28.3043C5.62711 32.0869 7.4843 35.5615 10.2114 38.2886C12.9386 41.0157 16.4131 42.8729 20.1957 43.6253C23.9784 44.3777 27.8992 43.9916 31.4623 42.5156C35.0255 41.0397 38.071 38.5404 40.2137 35.3336C42.3564 32.1269 43.5 28.3567 43.5 24.5C43.4945 19.33 41.4383 14.3732 37.7826 10.7174C34.1268 7.06167 29.1701 5.00546 24 5ZM24 41C20.7366 41 17.5465 40.0323 14.8331 38.2192C12.1197 36.4062 10.0048 33.8293 8.756 30.8143C7.50715 27.7993 7.1804 24.4817 7.81705 21.281C8.45371 18.0803 10.0252 15.1403 12.3327 12.8327C14.6403 10.5252 17.5803 8.9537 20.781 8.31704C23.9817 7.68039 27.2993 8.00714 30.3143 9.25599C33.3293 10.5048 35.9062 12.6197 37.7193 15.3331C39.5323 18.0465 40.5 21.2366 40.5 24.5C40.495 28.8745 38.7551 33.0685 35.6618 36.1618C32.5685 39.2551 28.3746 40.995 24 41ZM32.3288 14.1575L20.3288 20.1575C20.0386 20.3032 19.8032 20.5386 19.6575 20.8287L13.6575 32.8288C13.543 33.0575 13.489 33.3118 13.5004 33.5673C13.5119 33.8229 13.5886 34.0713 13.7231 34.2888C13.8576 34.5064 14.0456 34.686 14.2691 34.8105C14.4926 34.9349 14.7442 35.0002 15 35C15.2329 34.9997 15.4625 34.9458 15.6713 34.8425L27.6713 28.8425C27.9614 28.6968 28.1968 28.4614 28.3425 28.1712L34.3425 16.1713C34.4841 15.8895 34.5332 15.5703 34.483 15.259C34.4328 14.9477 34.2858 14.6601 34.0628 14.4372C33.8399 14.2142 33.5523 14.0672 33.241 14.017C32.9297 13.9668 32.6105 14.0159 32.3288 14.1575ZM25.875 26.375L18.3544 30.1456L22.125 22.625L29.6531 18.8619L25.875 26.375Z" fill="white"/>
</svg>
