<svg width="30" height="44" viewBox="0 0 30 44" fill="none" xmlns="http://www.w3.org/2000/svg">
<path d="M29.5534 40.1092C29.2856 40.3768 28.9322 40.5164 28.5709 40.4975C28.2095 40.4785 27.8699 40.3024 27.6265 40.0079L22.3541 33.6315C20.5505 34.9102 18.4947 35.6954 16.3587 35.9214V41.9997C16.3587 42.3976 16.215 42.7792 15.9592 43.0606C15.7033 43.3419 15.3564 43.5 14.9946 43.5C14.6328 43.5 14.2858 43.3419 14.03 43.0606C13.7741 42.7792 13.6304 42.3976 13.6304 41.9997V35.9233C10.2672 35.5469 7.15035 33.8122 4.8826 31.0548C2.61484 28.2973 1.3573 24.713 1.35314 20.9948C1.35314 20.5969 1.49687 20.2153 1.75269 19.9339C2.00852 19.6526 2.35549 19.4945 2.71729 19.4945C3.07908 19.4945 3.42605 19.6526 3.68188 19.9339C3.93771 20.2153 4.08143 20.5969 4.08143 20.9948C4.08459 24.1771 5.23538 27.228 7.2813 29.4782C9.32723 31.7284 12.1012 32.9941 14.9946 32.9976C16.9247 33.0038 18.8211 32.4418 20.4869 31.3697L18.5942 29.0817C17.3462 29.7538 15.9632 30.0655 14.5754 29.9872C13.1877 29.9089 11.8409 29.4434 10.6619 28.6343C9.483 27.8253 8.51076 26.6995 7.83681 25.363C7.16286 24.0264 6.80939 22.5232 6.80971 20.9948V14.8228L0.343679 7.00038C0.105464 6.70505 -0.0173119 6.31834 0.0019716 5.92411C0.0212551 5.52988 0.181043 5.1599 0.446692 4.89438C0.712342 4.62886 1.06244 4.4892 1.42109 4.50568C1.77974 4.52216 2.11802 4.69345 2.36261 4.98242L29.6455 37.99C29.8887 38.2845 30.0157 38.6732 29.9984 39.0706C29.9812 39.468 29.8211 39.8416 29.5534 40.1092ZM25.4286 28.2696C25.6146 28.3711 25.8194 28.4237 26.0271 28.4234C26.2826 28.4235 26.5331 28.3445 26.7498 28.1957C26.9666 28.0468 27.141 27.8339 27.2531 27.5814C28.1684 25.532 28.6417 23.2781 28.636 20.9948C28.636 20.5969 28.4923 20.2153 28.2364 19.9339C27.9806 19.6526 27.6336 19.4945 27.2719 19.4945C26.9101 19.4945 26.5631 19.6526 26.3073 19.9339C26.0514 20.2153 25.9077 20.5969 25.9077 20.9948C25.9126 22.821 25.5345 24.6237 24.8028 26.2629C24.6439 26.6203 24.6205 27.0325 24.7379 27.4088C24.8552 27.7851 25.1037 28.0947 25.4286 28.2696ZM20.7683 22.7896C20.9456 23.0042 21.1755 23.1577 21.4304 23.2315C21.6853 23.3054 21.9542 23.2965 22.2046 23.2058C22.4549 23.1151 22.6761 22.9466 22.8412 22.7207C23.0063 22.4947 23.1084 22.221 23.1351 21.9326C23.1642 21.621 23.179 21.308 23.1794 20.9948V8.99209C23.1773 6.92452 22.5282 4.92075 21.3411 3.31755C20.154 1.71435 18.5014 0.609449 16.6608 0.188531C14.8203 -0.232386 12.9042 0.0563432 11.2344 1.00619C9.56466 1.95604 8.24308 3.50911 7.49179 5.40439C7.38689 5.66931 7.35377 5.96191 7.39642 6.24702C7.43908 6.53214 7.55568 6.79764 7.73222 7.01163L20.7683 22.7896Z" fill="white"/>
</svg>
