<svg width="30" height="44" viewBox="0 0 30 44" fill="none" xmlns="http://www.w3.org/2000/svg">
<path d="M6 21V9C6 6.61305 6.94821 4.32387 8.63604 2.63604C10.3239 0.948211 12.6131 0 15 0C17.3869 0 19.6761 0.948211 21.364 2.63604C23.0518 4.32387 24 6.61305 24 9V21C24 23.3869 23.0518 25.6761 21.364 27.364C19.6761 29.0518 17.3869 30 15 30C12.6131 30 10.3239 29.0518 8.63604 27.364C6.94821 25.6761 6 23.3869 6 21ZM30 21C30 20.6022 29.842 20.2206 29.5607 19.9393C29.2794 19.658 28.8978 19.5 28.5 19.5C28.1022 19.5 27.7206 19.658 27.4393 19.9393C27.158 20.2206 27 20.6022 27 21C27 24.1826 25.7357 27.2348 23.4853 29.4853C21.2348 31.7357 18.1826 33 15 33C11.8174 33 8.76515 31.7357 6.51472 29.4853C4.26428 27.2348 3 24.1826 3 21C3 20.6022 2.84196 20.2206 2.56066 19.9393C2.27936 19.658 1.89782 19.5 1.5 19.5C1.10218 19.5 0.720645 19.658 0.43934 19.9393C0.158036 20.2206 0 20.6022 0 21C0.00456772 24.7173 1.38735 28.3008 3.88096 31.0576C6.37456 33.8144 9.80183 35.5487 13.5 35.925V42C13.5 42.3978 13.658 42.7794 13.9393 43.0607C14.2206 43.342 14.6022 43.5 15 43.5C15.3978 43.5 15.7794 43.342 16.0607 43.0607C16.342 42.7794 16.5 42.3978 16.5 42V35.925C20.1982 35.5487 23.6254 33.8144 26.119 31.0576C28.6126 28.3008 29.9954 24.7173 30 21Z" fill="white"/>
</svg>
