<svg width="33" height="32" viewBox="0 0 33 32" fill="none" xmlns="http://www.w3.org/2000/svg">
<path d="M28.225 21.9925C27.5312 20.7975 26.5 17.4163 26.5 13C26.5 10.3478 25.4464 7.8043 23.5711 5.92893C21.6957 4.05357 19.1522 3 16.5 3C13.8478 3 11.3043 4.05357 9.42892 5.92893C7.55355 7.8043 6.49999 10.3478 6.49999 13C6.49999 17.4175 5.46749 20.7975 4.77374 21.9925C4.59657 22.2963 4.50265 22.6415 4.50145 22.9931C4.50024 23.3448 4.59179 23.6906 4.76686 23.9956C4.94193 24.3006 5.19433 24.5541 5.49862 24.7304C5.8029 24.9068 6.1483 24.9997 6.49999 25H11.6012C11.832 26.1289 12.4455 27.1436 13.3382 27.8722C14.2308 28.6009 15.3477 28.9989 16.5 28.9989C17.6523 28.9989 18.7692 28.6009 19.6618 27.8722C20.5545 27.1436 21.168 26.1289 21.3987 25H26.5C26.8516 24.9995 27.1968 24.9064 27.5009 24.73C27.805 24.5535 28.0573 24.3 28.2322 23.9951C28.4071 23.6901 28.4985 23.3444 28.4973 22.9928C28.496 22.6412 28.4021 22.2962 28.225 21.9925ZM16.5 27C15.8798 26.9998 15.2748 26.8074 14.7685 26.4492C14.2621 26.0911 13.8792 25.5848 13.6725 25H19.3275C19.1207 25.5848 18.7378 26.0911 18.2315 26.4492C17.7251 26.8074 17.1202 26.9998 16.5 27ZM6.49999 23C7.46249 21.345 8.49999 17.51 8.49999 13C8.49999 10.8783 9.34284 8.84344 10.8431 7.34315C12.3434 5.84285 14.3783 5 16.5 5C18.6217 5 20.6565 5.84285 22.1568 7.34315C23.6571 8.84344 24.5 10.8783 24.5 13C24.5 17.5063 25.535 21.3412 26.5 23H6.49999Z" fill="#FF651D"/>
</svg>
