<svg width="48" height="48" viewBox="0 0 48 48" fill="none" xmlns="http://www.w3.org/2000/svg">
<path d="M46.3519 32.3493C46.2294 32.0948 46.0375 31.8801 45.7983 31.7298C45.5592 31.5796 45.2824 31.4999 45 31.4999H27V26.9999H40.5C40.7906 26.9999 41.0748 26.9155 41.3183 26.757C41.5618 26.5984 41.754 26.3726 41.8716 26.1069C41.9891 25.8412 42.027 25.547 41.9806 25.2602C41.9341 24.9734 41.8054 24.7062 41.61 24.4912L27 8.42057V1.49995C26.9983 1.19076 26.9012 0.889642 26.7218 0.637806C26.5424 0.38597 26.2896 0.19572 25.9979 0.0930939C25.7062 -0.00953219 25.39 -0.0195201 25.0924 0.0644971C24.7949 0.148514 24.5305 0.322431 24.3356 0.562446L4.83563 24.5624C4.65935 24.7826 4.54871 25.048 4.51642 25.3282C4.48412 25.6084 4.53148 25.892 4.65305 26.1465C4.77462 26.401 4.96548 26.6161 5.20373 26.767C5.44198 26.918 5.71796 26.9987 6 26.9999H24V31.4999H3C2.71732 31.4998 2.44035 31.5795 2.201 31.7299C1.96165 31.8803 1.76967 32.0952 1.64718 32.35C1.5247 32.6048 1.4767 32.889 1.50871 33.1698C1.54073 33.4507 1.65145 33.7168 1.82813 33.9374L7.37813 40.8749C7.65855 41.2267 8.01483 41.5106 8.42034 41.7054C8.82585 41.9002 9.27013 42.0009 9.72 41.9999H38.28C38.7299 42.0009 39.1742 41.9002 39.5797 41.7054C39.9852 41.5106 40.3414 41.2267 40.6219 40.8749L46.1719 33.9374C46.3485 33.7166 46.4592 33.4503 46.491 33.1694C46.5229 32.8884 46.4746 32.6041 46.3519 32.3493ZM37.11 23.9999H27V12.8793L37.11 23.9999ZM9.15188 23.9999L24 5.72432V23.9999H9.15188ZM38.28 38.9999H9.72L6.12 34.4999H41.88L38.28 38.9999Z" fill="white"/>
</svg>
