<svg width="33" height="32" viewBox="0 0 33 32" fill="none" xmlns="http://www.w3.org/2000/svg">
<path d="M29.365 26.5C27.4613 23.2087 24.5275 20.8487 21.1038 19.73C22.7973 18.7218 24.1131 17.1856 24.849 15.3572C25.585 13.5289 25.7004 11.5095 25.1776 9.60918C24.6548 7.70887 23.5226 6.03272 21.955 4.83814C20.3873 3.64355 18.4709 2.99658 16.5 2.99658C14.5291 2.99658 12.6127 3.64355 11.045 4.83814C9.4774 6.03272 8.34525 7.70887 7.82243 9.60918C7.29961 11.5095 7.41504 13.5289 8.15099 15.3572C8.88694 17.1856 10.2027 18.7218 11.8963 19.73C8.4725 20.8475 5.53875 23.2075 3.635 26.5C3.56519 26.6138 3.51888 26.7405 3.49881 26.8725C3.47875 27.0045 3.48532 27.1392 3.51816 27.2687C3.55099 27.3981 3.60942 27.5197 3.68999 27.6262C3.77056 27.7326 3.87165 27.8219 3.98728 27.8887C4.10292 27.9555 4.23076 27.9985 4.36326 28.015C4.49577 28.0316 4.63025 28.0215 4.75878 27.9853C4.88731 27.949 5.00728 27.8874 5.11161 27.8041C5.21595 27.7207 5.30253 27.6173 5.36625 27.5C7.72125 23.43 11.8838 21 16.5 21C21.1163 21 25.2788 23.43 27.6338 27.5C27.6975 27.6173 27.7841 27.7207 27.8884 27.8041C27.9927 27.8874 28.1127 27.949 28.2412 27.9853C28.3698 28.0215 28.5042 28.0316 28.6367 28.015C28.7692 27.9985 28.8971 27.9555 29.0127 27.8887C29.1284 27.8219 29.2294 27.7326 29.31 27.6262C29.3906 27.5197 29.449 27.3981 29.4818 27.2687C29.5147 27.1392 29.5213 27.0045 29.5012 26.8725C29.4811 26.7405 29.4348 26.6138 29.365 26.5ZM9.5 12C9.5 10.6155 9.91055 9.26214 10.6797 8.11099C11.4489 6.95985 12.5421 6.06264 13.8212 5.53283C15.1003 5.00301 16.5078 4.86439 17.8656 5.13449C19.2235 5.40458 20.4708 6.07127 21.4497 7.05023C22.4287 8.0292 23.0954 9.27648 23.3655 10.6344C23.6356 11.9922 23.497 13.3997 22.9672 14.6788C22.4373 15.9578 21.5401 17.0511 20.389 17.8203C19.2379 18.5894 17.8845 19 16.5 19C14.6441 18.998 12.8648 18.2599 11.5524 16.9475C10.2401 15.6352 9.50199 13.8559 9.5 12Z" fill="#A0A0A0"/>
</svg>
