<svg width="39" height="39" viewBox="0 0 39 39" fill="none" xmlns="http://www.w3.org/2000/svg">
<path d="M19.5 0C15.6433 0 11.8731 1.14366 8.66639 3.28634C5.45963 5.42903 2.96027 8.47451 1.48436 12.0377C0.00844905 15.6008 -0.377716 19.5216 0.374696 23.3043C1.12711 27.0869 2.9843 30.5615 5.71143 33.2886C8.43855 36.0157 11.9131 37.8729 15.6957 38.6253C19.4784 39.3777 23.3992 38.9916 26.9623 37.5156C30.5255 36.0397 33.571 33.5404 35.7137 30.3336C37.8564 27.1269 39 23.3567 39 19.5C38.9945 14.33 36.9383 9.37322 33.2826 5.71745C29.6268 2.06167 24.6701 0.00545966 19.5 0ZM26.5613 24.4387C26.7006 24.5781 26.8112 24.7436 26.8866 24.9257C26.962 25.1077 27.0008 25.3029 27.0008 25.5C27.0008 25.6971 26.962 25.8923 26.8866 26.0743C26.8112 26.2564 26.7006 26.4219 26.5613 26.5613C26.4219 26.7006 26.2564 26.8112 26.0744 26.8866C25.8923 26.962 25.6971 27.0008 25.5 27.0008C25.3029 27.0008 25.1078 26.962 24.9257 26.8866C24.7436 26.8112 24.5781 26.7006 24.4388 26.5613L19.5 21.6206L14.5613 26.5613C14.4219 26.7006 14.2564 26.8112 14.0744 26.8866C13.8923 26.962 13.6971 27.0008 13.5 27.0008C13.3029 27.0008 13.1078 26.962 12.9257 26.8866C12.7436 26.8112 12.5781 26.7006 12.4388 26.5613C12.2994 26.4219 12.1888 26.2564 12.1134 26.0743C12.038 25.8923 11.9992 25.6971 11.9992 25.5C11.9992 25.3029 12.038 25.1077 12.1134 24.9257C12.1888 24.7436 12.2994 24.5781 12.4388 24.4387L17.3794 19.5L12.4388 14.5613C12.1573 14.2798 11.9992 13.898 11.9992 13.5C11.9992 13.102 12.1573 12.7202 12.4388 12.4387C12.7202 12.1573 13.102 11.9992 13.5 11.9992C13.8981 11.9992 14.2798 12.1573 14.5613 12.4387L19.5 17.3794L24.4388 12.4387C24.5781 12.2994 24.7436 12.1888 24.9257 12.1134C25.1078 12.038 25.3029 11.9992 25.5 11.9992C25.6971 11.9992 25.8923 12.038 26.0744 12.1134C26.2564 12.1888 26.4219 12.2994 26.5613 12.4387C26.7006 12.5781 26.8112 12.7436 26.8866 12.9257C26.962 13.1077 27.0008 13.3029 27.0008 13.5C27.0008 13.6971 26.962 13.8923 26.8866 14.0743C26.8112 14.2564 26.7006 14.4219 26.5613 14.5613L21.6206 19.5L26.5613 24.4387Z" fill="white"/>
</svg>
